<?xml version="1.0" encoding="utf-8"?>
<!-- Generator: Adobe Illustrator 24.0.2, SVG Export Plug-In . SVG Version: 6.00 Build 0)  -->
<svg version="1.1" id="Layer_1" xmlns="http://www.w3.org/2000/svg" xmlns:xlink="http://www.w3.org/1999/xlink" x="0px" y="0px"
	 viewBox="0 0 348 348" style="enable-background:new 0 0 348 348;" xml:space="preserve">
<style type="text/css">
	.st0{fill:#FFFFFF;}
	.st1{fill:#78C8C8;}
	.st2{fill:none;stroke:#78C8C8;stroke-miterlimit:10;}
	.st3{fill-rule:evenodd;clip-rule:evenodd;fill:#78C8C8;}
</style>
<g>
	<g>
		<circle class="st0" cx="174" cy="174" r="173.5"/>
		<path class="st0" d="M174,1c46.2,0,89.7,18,122.3,50.7C329,84.3,347,127.8,347,174s-18,89.7-50.7,122.3
			C263.7,329,220.2,347,174,347s-89.7-18-122.3-50.7C19,263.7,1,220.2,1,174S19,84.3,51.7,51.7S127.8,1,174,1 M174,0
			C77.9,0,0,77.9,0,174s77.9,174,174,174s174-77.9,174-174S270.1,0,174,0L174,0z"/>
	</g>
	<g>
		<path class="st1" d="M107.9,138.9c-1-11.4-6.6-19.9-16.8-25.2c-4.7-2.5-9.4-3.7-12.5-4.2v3.4c2.5,0.5,6.3,1.5,10.2,3.6
			c5.9,3.3,13.2,9.9,14.4,23c0.5,6-1,11.5-4.6,16c-2.5,3.2-6,5.9-10.3,8v5.6C98.7,164.4,109.2,154.1,107.9,138.9z"/>
		<path class="st1" d="M97.4,139.9c-0.7-7.4-3.7-13.1-9.1-17v34C96.6,151.8,97.8,144.9,97.4,139.9z"/>
		<path class="st1" d="M189.5,221.8c0.4,0.4,0.9,0.8,1.5,1c0.6,0.2,1.2,0.4,1.8,0.4c0.6,0,1.3-0.1,1.8-0.4c0.6-0.3,1-0.6,1.4-1
			c0.4-0.4,0.7-0.9,1-1.5c0.2-0.6,0.3-1.2,0.3-1.8c0-0.6-0.1-1.2-0.4-1.7c-0.2-0.5-0.6-1-1-1.4c-0.4-0.4-0.9-0.7-1.5-1
			c-1.2-0.5-2.5-0.4-3.5,0c-0.6,0.2-1.1,0.6-1.5,1c-0.4,0.4-0.7,0.9-1,1.5c-0.2,0.6-0.4,1.2-0.4,1.8c0,0.6,0.1,1.2,0.3,1.8
			C188.7,220.9,189.1,221.4,189.5,221.8z"/>
		<path class="st1" d="M151.5,124.2c0-2.2-0.9-3.7-2.8-4.7c-1.6-0.8-3.4-0.9-3.6-0.9c-2.2,0-3.6,0.9-4.5,2.9
			c-0.7,1.5-0.8,3.1-0.8,3.3v24.3l11.7,6.6V124.2z"/>
		<path class="st1" d="M180.1,215.2c-0.4-0.4-0.9-0.7-1.5-1c-0.6-0.2-1.1-0.3-1.7-0.3c-0.6,0-1.3,0.1-1.8,0.4
			c-0.6,0.2-1.1,0.6-1.5,1c-0.4,0.4-0.7,0.9-1,1.5c-0.2,0.6-0.4,1.2-0.4,1.8c0,0.6,0.1,1.2,0.3,1.8c0.2,0.6,0.6,1,1,1.5
			c0.4,0.4,0.9,0.8,1.5,1c0.6,0.2,1.2,0.4,1.8,0.4c0.6,0,1.3-0.1,1.8-0.4c0.6-0.3,1-0.6,1.4-1c0.4-0.4,0.7-0.9,1-1.5v0
			c0.2-0.6,0.3-1.2,0.3-1.8c0-0.6-0.1-1.2-0.4-1.7C180.9,216.1,180.6,215.6,180.1,215.2z"/>
		<path class="st1" d="M168.6,256.1c-0.8-0.7-1.8-1-2.9-1c-1.1,0-2,0.3-2.9,1c-0.8,0.6-1.3,1.4-1.6,2.3h9
			C169.9,257.5,169.3,256.7,168.6,256.1z"/>
		<path class="st1" d="M119.7,256.4c-0.4-0.4-0.9-0.7-1.5-1c-0.6-0.2-1.1-0.3-1.7-0.3c-0.6,0-1.3,0.1-1.8,0.4
			c-0.6,0.2-1.1,0.6-1.5,1c-0.4,0.4-0.7,0.9-1,1.5c-0.2,0.6-0.3,1.2-0.3,1.8c0,0.6,0.1,1.2,0.3,1.8c0.2,0.6,0.6,1.1,1,1.5
			c0.4,0.4,0.9,0.8,1.5,1c0.6,0.2,1.2,0.4,1.8,0.4c0.6,0,1.3-0.1,1.8-0.4c0.6-0.3,1-0.6,1.4-1c0.4-0.4,0.7-0.9,1-1.5
			c0.2-0.6,0.4-1.2,0.4-1.8c0-0.6-0.1-1.2-0.4-1.7C120.5,257.3,120.2,256.8,119.7,256.4z"/>
		<path class="st1" d="M162.5,239c-0.1,0.1-0.3,0.1-0.5,0.2c-0.3,0.2-0.7,0.4-1.1,0.7c-0.4,0.3-0.8,0.6-1.1,1.1
			c-0.3,0.4-0.5,1-0.5,1.6c0,0.9,0.3,1.6,0.9,2.3c0.6,0.7,1.4,1,2.3,1c1,0,1.8-0.3,2.3-1c0.5-0.6,1-1.3,1.5-2.1
			c-0.7-0.7-1.4-1.3-2-1.9C163.8,240.2,163.2,239.6,162.5,239z"/>
		<path class="st1" d="M163.2,236.1c0.6-0.2,1.2-0.6,1.7-1c0.6-0.4,0.8-0.9,0.8-1.5c0-0.5-0.2-1-0.7-1.3c-0.4-0.4-0.9-0.6-1.5-0.6
			c-0.6,0-1.1,0.2-1.5,0.5c-0.4,0.3-0.6,0.8-0.6,1.4c0,0.5,0.2,0.9,0.6,1.4C162.4,235.4,162.8,235.8,163.2,236.1z"/>
		<path class="st1" d="M144.6,215.2c-0.9-0.9-2-1.4-3.3-1.4c-1.3,0-2.4,0.5-3.3,1.4c-0.9,0.9-1.4,2-1.4,3.3c0,1.3,0.5,2.4,1.4,3.3
			c0.9,0.9,2,1.4,3.3,1.4c1.3,0,2.4-0.5,3.3-1.4c0.9-0.9,1.4-2,1.4-3.3C146,217.2,145.5,216.1,144.6,215.2z"/>
		<path class="st1" d="M78.6,160.9c1.4-0.4,2.7-0.8,3.9-1.3v-39.8c-1.3-0.5-2.6-0.9-3.9-1.2V160.9z"/>
		<path class="st1" d="M128.3,214.8c-0.8-0.7-1.8-1-2.9-1c-1.1,0-2,0.3-2.9,1l0,0c-0.8,0.6-1.3,1.4-1.6,2.3h9
			C129.6,216.2,129,215.4,128.3,214.8z"/>
		<path class="st1" d="M284.9,193.8c-0.2-2.3-0.9-4-2.1-4.9c-1-0.8-2.2-0.9-3-0.8c-0.1,3.4-0.7,8.2-2.4,12.5c3-0.1,5.1-0.9,6.4-2.3
			c1.6-1.8,1.2-4.3,1.2-4.3L284.9,193.8z"/>
		<path class="st1" d="M173.2,34C95.7,34,32.7,97,32.7,174.5c0,77.5,63,140.5,140.5,140.5c77.5,0,140.5-63,140.5-140.5
			C313.8,97,250.7,34,173.2,34z M229.4,102.6h5.8v21.7h-5.8V102.6z M174.2,113.1h24.2v-4.4h-24.2v-5.8h45v5.8h-15v4.4h15v5.8h-15
			v71.3h-5.8v-71.3H194l0.7,71l-5.8,0.1l0-0.2l-0.7-70.8h-14V113.1z M168.9,211.3l0.2,0v2.5l-0.2,0c-1.3,0.1-2.2,0.4-2.7,1.1
			c-0.5,0.7-0.8,1.5-0.8,2.6v7.8H163v-13.7h2.4v0.9c0.4-0.4,0.8-0.6,1.4-0.8C167.4,211.5,168.1,211.3,168.9,211.3z M129.1,108.7
			c3.9-4.2,9.5-6.3,16.8-6.3c4.9,0,20.8,1.5,20.8,21.3v67.1h-5.8v-67.1c0-7.1-2.6-15.6-15-15.6c-5.6,0-9.8,1.5-12.5,4.5
			c-4.1,4.4-3.6,10.8-3.6,10.9l0,0.2l0,32.6l4.2,2.3l0-34c0.1-4.1,2.5-11.9,11.2-11.9l0.1,0c4.2,0.1,12.1,2.6,12.1,11.3v41.5
			l-17.5-9.9v6.1l17.7,9.7v18.6h-5.8v-15.2l-11.9-6.5v21.9H134l0-25.1l-4.2-2.3v27.9H124v-67C124,123,123.6,114.8,129.1,108.7z
			 M144.1,225.1c-0.9,0.4-1.8,0.6-2.8,0.6c-1.1,0-2.1-0.2-3-0.6c-0.9-0.4-1.7-0.9-2.3-1.6c-0.6-0.7-1.1-1.4-1.5-2.3
			c-0.3-0.9-0.5-1.8-0.5-2.8c0-1.2,0.3-2.3,0.8-3.2c0.5-0.9,1.1-1.6,1.8-2.2c0.7-0.6,1.5-1,2.4-1.3c0.9-0.3,1.6-0.4,2.3-0.4
			c1,0,1.9,0.2,2.8,0.5c0.7,0.3,1.4,0.7,1.9,1.3v-1.6h2.4v13.7H146v-1.6C145.5,224.3,144.8,224.7,144.1,225.1z M118.8,215.7
			c0.4-0.9,0.9-1.6,1.5-2.3c0.6-0.6,1.4-1.2,2.2-1.5c0.9-0.4,1.8-0.5,2.8-0.5c1.1,0,2,0.2,2.9,0.6c0.9,0.4,1.6,1,2.3,1.7
			c0.6,0.7,1.1,1.6,1.4,2.5c0.3,1,0.5,2,0.4,3.2l0,0.2h-11.7c0.1,0.5,0.2,0.9,0.5,1.3c0.3,0.5,0.6,0.9,1.1,1.2
			c0.4,0.3,0.9,0.6,1.5,0.8c0.5,0.2,1.1,0.3,1.6,0.3c0.9,0,1.7-0.2,2.5-0.7c0.8-0.5,1.3-1.1,1.7-2l0-0.1h2.6l-0.1,0.3
			c-0.5,1.5-1.4,2.7-2.6,3.7c-1.2,0.9-2.6,1.4-4.1,1.4c-1,0-1.9-0.2-2.8-0.6c-0.9-0.4-1.6-0.9-2.3-1.5c-0.6-0.6-1.2-1.4-1.5-2.3
			c-0.4-0.9-0.5-1.8-0.5-2.8C118.3,217.5,118.5,216.6,118.8,215.7z M107.1,209.4v-2.4h10.5v2.4h-3.9v15.8h-2.6v-15.8H107.1z
			 M88.2,191.1h-5.8v-13.9c-1.3,0.3-2.6,0.7-3.9,0.9v13.6h-5.8V103l3.1,0.2c0.4,0,8.8,0.7,17.7,5.2c12,6.2,18.9,16.5,20.1,30
			c1.1,12.7-5,29.1-25.4,36.9V191.1z M107.9,261.4c-0.9,1.7-2,3-3.5,4c-1.5,1-3.2,1.5-4.9,1.5c-1.3,0-2.6-0.2-3.8-0.7
			c-1.2-0.5-2.2-1.2-3-2c-0.9-0.9-1.5-1.9-2-3c-0.5-1.2-0.7-2.4-0.7-3.8c0-1.3,0.3-2.5,0.7-3.6c0.5-1.1,1.2-2.1,2-3
			c0.8-0.8,1.8-1.5,3-2c1.9-0.8,3.9-1,6.1-0.4c0.8,0.2,1.7,0.5,2.4,1c0.8,0.4,1.5,1,2.1,1.7c0.6,0.7,1.2,1.5,1.6,2.4l0.1,0.3h-2.8
			l-0.1-0.1c-0.6-1-1.5-1.7-2.5-2.2c-2-0.9-4.1-1-5.9-0.2c-0.8,0.4-1.6,0.9-2.2,1.5c-0.6,0.6-1.1,1.3-1.5,2.2
			c-0.4,0.8-0.5,1.7-0.5,2.6c0,0.9,0.2,1.8,0.6,2.7c0.4,0.8,0.9,1.6,1.5,2.2c0.6,0.6,1.4,1.1,2.2,1.5c0.8,0.4,1.7,0.5,2.7,0.5
			c1.1,0,2.2-0.3,3.2-0.8h0c1-0.5,1.9-1.3,2.5-2.2l0.1-0.1h2.8L107.9,261.4z M123.1,262.4c-0.4,0.9-0.9,1.7-1.5,2.3
			c-0.6,0.7-1.4,1.2-2.3,1.6c-0.9,0.4-1.8,0.6-2.8,0.6c-1,0-1.9-0.2-2.8-0.6c-0.9-0.4-1.6-0.9-2.3-1.5c-0.6-0.6-1.2-1.4-1.5-2.3
			c-0.4-0.9-0.6-1.8-0.6-2.7c0-1,0.2-1.9,0.5-2.8c0.4-0.9,0.9-1.6,1.5-2.3c0.6-0.6,1.4-1.2,2.3-1.5c1.7-0.7,3.7-0.8,5.5,0
			c0.9,0.4,1.6,0.9,2.3,1.5c0.7,0.6,1.2,1.4,1.6,2.2c0.4,0.9,0.6,1.8,0.6,2.7C123.7,260.6,123.5,261.5,123.1,262.4z M132.8,255.2
			h-3.2v11.3H127v-11.3h-2v-2.4h2c0-1.4,0.4-2.5,1.4-3.3c1-0.8,2.3-1.2,4.1-1.2h0.2v2.4h-0.2c-1.1,0-1.8,0.2-2.3,0.5
			c-0.4,0.3-0.6,0.8-0.7,1.6h3.2V255.2z M141.6,255.2h-3.2v11.3h-2.5v-11.3h-2v-2.4h2c0-1.4,0.4-2.5,1.4-3.3c1-0.8,2.3-1.2,4.1-1.2
			h0.2v2.4h-0.2c-1.1,0-1.8,0.2-2.3,0.5c-0.4,0.3-0.6,0.8-0.7,1.6h3.2V255.2z M157.1,260.8h-11.7c0.1,0.5,0.2,0.9,0.5,1.3
			c0.3,0.5,0.6,0.9,1.1,1.2c0.4,0.3,0.9,0.6,1.5,0.8c0.5,0.2,1.1,0.3,1.6,0.3c0.9,0,1.7-0.2,2.5-0.7c0.8-0.5,1.3-1.1,1.7-2l0-0.1
			h2.6l-0.1,0.3c-0.5,1.5-1.4,2.7-2.6,3.7c-1.2,0.9-2.6,1.4-4.1,1.4c-1,0-1.9-0.2-2.8-0.6c-0.9-0.4-1.6-0.9-2.3-1.5
			c-0.6-0.6-1.2-1.4-1.5-2.3c-0.4-0.9-0.5-1.8-0.5-2.8c0-1,0.2-1.9,0.5-2.7c0.4-0.9,0.9-1.6,1.5-2.3c0.6-0.6,1.4-1.2,2.2-1.5
			c0.9-0.4,1.8-0.5,2.8-0.5c1.1,0,2,0.2,2.9,0.6c0.9,0.4,1.6,1,2.3,1.7c0.6,0.7,1.1,1.6,1.4,2.5v0c0.3,1,0.5,2,0.4,3.2L157.1,260.8z
			 M172.8,260.8h-11.7c0.1,0.5,0.2,0.9,0.5,1.3c0.3,0.5,0.6,0.9,1.1,1.2c0.4,0.3,0.9,0.6,1.5,0.8c0.5,0.2,1.1,0.3,1.6,0.3
			c0.9,0,1.7-0.2,2.5-0.7c0.8-0.5,1.3-1.1,1.7-2l0-0.1h2.6l-0.1,0.3c-0.5,1.5-1.4,2.7-2.6,3.7c-1.2,0.9-2.6,1.4-4.1,1.4
			c-1,0-1.9-0.2-2.8-0.6c-0.9-0.4-1.6-0.9-2.3-1.5c-0.6-0.6-1.2-1.4-1.5-2.3c-0.4-0.9-0.5-1.8-0.5-2.8c0-1,0.2-1.9,0.5-2.7
			c0.4-0.9,0.9-1.6,1.5-2.3c0.6-0.6,1.4-1.2,2.2-1.5c0.9-0.4,1.8-0.5,2.8-0.5c1.1,0,2,0.2,2.9,0.6c0.9,0.4,1.6,1,2.3,1.7
			c0.6,0.7,1.1,1.6,1.4,2.5v0c0.3,1,0.5,2,0.4,3.2L172.8,260.8z M172.2,248.4l-3.9-3.9c-0.6,1-1.3,1.9-2.1,2.6
			c-0.9,0.8-2.1,1.1-3.5,1.1c-0.8,0-1.6-0.2-2.3-0.5c-0.7-0.3-1.3-0.7-1.9-1.3c-0.5-0.5-0.9-1.2-1.2-1.9c-0.3-0.7-0.5-1.5-0.5-2.3
			c0-1.3,0.4-2.5,1.2-3.4c0.7-0.8,1.6-1.5,2.5-2c-0.4-0.5-0.8-1-1.1-1.5c-0.3-0.6-0.5-1.3-0.5-2.1c0-0.6,0.1-1.2,0.4-1.7
			c0.3-0.5,0.6-1,1-1.3c0.4-0.4,0.9-0.7,1.4-0.9c1.1-0.5,2.4-0.4,3.5,0c0.6,0.2,1.1,0.6,1.5,1c0.4,0.4,0.8,0.9,1,1.4
			c0.3,0.6,0.4,1.2,0.4,1.8c0,1.1-0.4,2-1.1,2.7c-0.6,0.6-1.3,1.1-2.1,1.4l2.6,2.6l2.5-4.8h2.8l-3.4,6.5l4.5,4.5L172.2,248.4z
			 M183.5,221.1c-0.4,0.9-0.9,1.7-1.5,2.3c-0.6,0.7-1.4,1.2-2.3,1.6c-0.9,0.4-1.8,0.6-2.8,0.6c-1,0-1.9-0.2-2.8-0.6
			c-0.9-0.4-1.6-0.9-2.3-1.5c-0.6-0.6-1.2-1.4-1.5-2.3c-0.4-0.9-0.6-1.8-0.6-2.7c0-1,0.2-1.9,0.5-2.8c0.4-0.9,0.9-1.6,1.5-2.3
			c0.6-0.6,1.4-1.2,2.3-1.5c1.7-0.7,3.7-0.8,5.5,0c0.9,0.4,1.6,0.9,2.3,1.5h0c0.7,0.6,1.2,1.4,1.6,2.2c0.4,0.9,0.6,1.8,0.6,2.7
			C184.1,219.3,183.9,220.2,183.5,221.1z M186.1,215.7c0.4-0.9,0.9-1.6,1.5-2.3c0.6-0.6,1.4-1.2,2.3-1.5c1.7-0.7,3.7-0.8,5.5,0
			c0.9,0.4,1.6,0.9,2.3,1.5c0.7,0.6,1.2,1.4,1.6,2.2c0.4,0.9,0.6,1.8,0.6,2.7c0,1-0.2,1.9-0.5,2.8c-0.4,0.9-0.9,1.7-1.5,2.3
			c-0.6,0.7-1.4,1.2-2.3,1.6c-0.9,0.4-1.8,0.6-2.8,0.6c-1,0-1.9-0.2-2.8-0.6c-0.9-0.4-1.6-0.9-2.3-1.5c-0.6-0.6-1.2-1.4-1.5-2.3
			c-0.4-0.9-0.6-1.8-0.6-2.7C185.6,217.5,185.8,216.6,186.1,215.7z M204,261.3c-0.9,1.7-2,3-3.5,4c-1.5,1-3.2,1.5-4.9,1.5
			c-1.3,0-2.6-0.2-3.8-0.7c-1.2-0.5-2.2-1.2-3-2c-0.9-0.9-1.5-1.9-2-3c-0.5-1.2-0.7-2.4-0.7-3.8c0-1.3,0.3-2.5,0.7-3.6
			c0.5-1.1,1.2-2.1,2-3c0.8-0.8,1.8-1.5,3-2c1.9-0.8,3.9-1,6.1-0.4c0.8,0.2,1.7,0.5,2.4,1c0.8,0.4,1.5,1,2.1,1.7
			c0.6,0.7,1.2,1.5,1.6,2.4l0.1,0.3h-2.8l-0.1-0.1c-0.6-1-1.5-1.7-2.5-2.2c-2-0.9-4.1-1-5.9-0.2c-0.8,0.4-1.6,0.9-2.2,1.5
			c-0.6,0.6-1.1,1.3-1.5,2.2c-0.4,0.8-0.5,1.7-0.5,2.6c0,0.9,0.2,1.8,0.6,2.7c0.4,0.8,0.9,1.6,1.5,2.2c0.6,0.6,1.4,1.1,2.2,1.5
			c0.8,0.4,1.7,0.5,2.7,0.5c1.1,0,2.2-0.3,3.2-0.8c1-0.5,1.9-1.3,2.5-2.2l0.1-0.1h2.8L204,261.3z M208.4,266.4h-2.5v-20.1h2.5V266.4
			z M209.8,214.8c-0.6-0.7-1.3-1-2.3-1c-1,0-1.7,0.3-2.2,0.9c-0.5,0.6-0.8,1.3-0.8,2.2v8.4H202v-13.7h2.5v0.9c0.8-0.8,1.8-1.2,3-1.2
			c1,0,1.9,0.2,2.7,0.6c0.7,0.4,1.3,0.8,1.8,1.4c0.4-0.6,1-1,1.8-1.4c1.4-0.7,2.9-0.9,4.6-0.2c0.7,0.3,1.3,0.6,1.8,1.1
			c0.5,0.5,1,1.1,1.3,1.8c0.4,0.7,0.5,1.5,0.5,2.4v8.2h-2.6v-8.1c0-1-0.3-1.8-0.9-2.4c-0.6-0.7-1.3-1-2.3-1c-0.9,0-1.6,0.3-2.1,0.9
			c-0.5,0.6-0.8,1.3-0.8,2.2v8.4h-2.5v-8.2C210.6,216.2,210.4,215.4,209.8,214.8z M222.9,266.4h-2.5v-1.2c-0.4,0.5-0.9,0.8-1.5,1.1
			c-0.7,0.3-1.6,0.5-2.4,0.5c-0.4,0-0.9-0.1-1.6-0.2c-0.7-0.2-1.3-0.5-1.9-0.9c-0.6-0.5-1.2-1.1-1.6-1.9c-0.5-0.8-0.7-2-0.7-3.3
			v-7.6h2.6v7.6c0,1.1,0.3,2,0.9,2.8c0.6,0.8,1.4,1.1,2.5,1.1c1.1,0,1.9-0.4,2.6-1.1c0.7-0.8,1-1.7,1-2.7v-7.6h2.6V266.4z
			 M239.1,262.6c-0.4,0.9-1,1.7-1.7,2.3c-0.7,0.6-1.5,1.1-2.3,1.4c-0.8,0.3-1.7,0.5-2.5,0.5c-0.9,0-1.8-0.2-2.7-0.5
			c-0.8-0.3-1.4-0.7-2-1.2v1.5h-2.5v-20.1h2.6v7.9c0.5-0.5,1.1-0.9,1.8-1.2c1.9-0.8,3.8-0.7,5.4,0c0.9,0.3,1.7,0.8,2.3,1.5v0
			c0.7,0.6,1.2,1.4,1.6,2.2c0.4,0.9,0.6,1.8,0.6,2.8C239.8,260.7,239.6,261.7,239.1,262.6z M275.7,204.1c-2.1,3.3-4.8,5.5-8.3,6.5
			h14.9c1.3,0,2.1,1.1,2.1,2.1c0,1.1-0.7,2.1-2.1,2.1H238c-1.3,0-2.1-1.1-2.1-2.1c0-1.1,0.7-2.1,2.1-2.1h13.6
			c-6.5-2.1-13.4-8.9-12.9-28.2l0-0.2h18.9c-1-0.3-2-0.8-2.8-1.4c-2.3-1.6-4.1-3.7-6-6.9l0.3-0.2c0.9,1,2,2.2,3.1,3.2
			c1.2,1.1,2.4,1.9,3.5,2.4c1.3,0.6,2.6,1,3.9,1c0.6,0,1.3,0,2,0c0.3,0,0.7-0.1,1.1-0.1l1.1-0.1c2.1-0.3,5-1.2,6.9-3.2
			c0.8-0.9,1.4-1.9,1.8-3.1c0.4-1.1,0.6-2.4,0.6-3.7c0-1.2-0.2-2.5-0.5-3.8c-0.3-1.2-0.8-2.3-1.5-3.2c-1.5-2.1-3.8-3.8-5.9-5.3
			c-0.6-0.4-1.1-0.8-1.8-1.2l-1.9-1.2c-1.5-0.9-2.7-1.7-3.8-2.4c-3.1-2-5.4-3.7-7.5-5.4c-1.3-1-2.4-2.1-3.5-3.3
			c-1.1-1.1-2.1-2.4-3.1-3.8c-1-1.5-1.8-3-2.4-4.7c-0.6-1.7-0.9-3.4-1-5.2c-0.1-3.3,0.6-6.7,2.1-9.9c1.4-3,3.3-5.7,5.7-8
			c1.3-1.2,2.6-2.2,3.9-3.1c0.8-0.5,1.6-0.9,2.3-1.1c0.5-0.2,0.8-0.3,1.2-0.4c0.4-0.1,0.8-0.2,1.2-0.3c1.6-0.4,3.3-0.5,4.9-0.5
			c1.6,0,3.2,0.2,4.8,0.6c3,0.7,5.9,2.1,8.5,4c2.6,1.9,4.8,4.1,6.4,6.5l-0.3,0.2c-1-1-2.2-2-3.4-2.8c-1.2-0.9-2.5-1.7-3.7-2.3
			c-2.7-1.4-5.4-2.3-8-2.6c-2.7-0.3-5.5-0.1-8.1,0.7c-0.3,0.1-0.6,0.2-1,0.3c-0.3,0.1-0.7,0.2-0.9,0.4c-0.5,0.2-1.1,0.6-1.6,1
			c-1,0.7-2,1.6-2.9,2.7c-0.9,1-1.7,2.1-2.4,3.2c-0.7,1.2-1.4,2.4-1.8,3.6c-1,2.6-1.5,5.2-1.3,7.5c0.2,2.5,1.1,4.8,2.6,6.8
			c0.8,1.2,1.7,2.2,2.6,3.1c0.8,0.9,1.8,1.8,3,2.8c2.2,1.8,4.6,3.5,7,5.1c1.1,0.7,2.3,1.6,3.7,2.5l0.5,0.3c0.5,0.3,0.9,0.6,1.4,0.9
			c0.7,0.5,1.3,0.9,1.9,1.3c1.5,1.1,2.7,2,3.7,3c1.4,1.3,2.5,2.6,3.3,3.9c0.9,1.5,1.6,3.2,2,5c0.3,1.7,0.5,3.4,0.3,5.1
			c-0.1,1.8-0.5,3.5-1.2,5.1c-0.7,1.7-1.8,3.2-3.1,4.4c-1.3,1.1-2.8,2-4.5,2.6c-0.2,0.1-0.3,0.1-0.5,0.1h11.4l0,0.2
			c0,0,0.1,0.9,0.1,2.2c1.4,0,3.3,0.2,5,1.5c2,1.5,3.2,3.9,3.5,7.3c0.1,0.7,0.5,4.2-1.9,7.1C284.3,203,280.7,204.2,275.7,204.1z"/>
		<path class="st1" d="M152.9,256.1c-0.8-0.7-1.8-1-2.9-1c-1.1,0-2,0.3-2.9,1c-0.8,0.6-1.3,1.4-1.6,2.3h9
			C154.2,257.5,153.7,256.7,152.9,256.1z"/>
		<path class="st1" d="M174,0C77.9,0,0,77.9,0,174s77.9,174,174,174s174-77.9,174-174S270.1,0,174,0z M178.7,13.5
			c3.3-3,9.3-4,13.8-2.3c3.6,1.3,6.8,4.1,9.9,6.8c1,0.9,1.9,1.7,2.9,2.5c0.7,0.5,1.3,1.1,2,1.7c3.3,2.9,7.1,6.2,11.7,5.9
			c1.9-0.1,5.2-0.9,5.2-4.8c0-2.7-1.9-4.3-3.8-4.4c-1.4-0.1-3.2,0.6-3.5,2.8c0.2,0.3,0.9,0.2,1.5,0.1c0.8-0.1,1.8-0.2,2.3,0.3
			c0.3,0.3,0.4,0.6,0.4,1.2c0,2-0.8,2.7-1.5,3c-1.1,0.5-2.8,0-4.2-1.2c-1.5-1.3-2.8-3.6-2.1-6.1c0.8-2.5,2.9-3.8,5.8-3.3
			c3.6,0.5,7.6,3.6,7.6,7.2c0,3.5-3.1,7.5-7.9,7.9c-0.3,0-0.6,0-0.9,0c-5.9,0-10.4-4.3-15.1-8.9c-5.1-4.9-10.3-10-17.5-9.2
			c-3.2,0.3-8,2.9-7.5,8.3c0.2,2.2,3.5,4.2,5.8,4c0.9,0,2.3-0.4,2.2-2.5c0-0.8-0.2-1.4-0.7-1.7c-0.5-0.4-1.4-0.6-2.6-0.4l-0.3,0.1
			l0.1-0.3c0.3-0.8,1.1-1.3,2.1-1.3c1.2,0,2.4,0.5,2.8,1.3c1.3,2.6,0.8,4.2,0.1,5.1c-1.2,1.5-3.8,2.2-6.5,1.6
			c-2.7-0.6-4.6-2.2-5.1-4.3C175.1,17.9,177,15.1,178.7,13.5z M124.7,17.2c2.5-1.4,5.6-1.5,7.6-0.1c1.6,1.1,2.3,3,1.9,5.4
			c-0.2,1.3-1.7,3.4-2.8,3.6c-2.8,0.6-3.7-0.6-4-1.2c-0.5-1-0.2-2.3,0.6-3.1c0.8-0.7,1.8-0.7,2.8-0.1c0.2-1,0-1.7-0.6-2.3
			c-0.9-0.7-2.4-0.8-3.8-0.2c-1.5,0.7-2.5,2-2.5,3.6c-0.1,2.9,2.2,4.9,4.4,5.2c4.7,0.7,9.4-3.3,12.9-6.3c0.6-0.5,1.1-0.9,1.6-1.4
			c1-0.8,1.9-1.7,2.9-2.6c4.3-3.9,9.1-8.3,16.8-7.5c2.4,0.3,7.8,3.3,9.4,7.5c1,2.6,0.5,5.1-1.6,7.5c-2.1,2.4-4.9,2.9-7.5,1.5
			c-2.3-1.3-3.7-3.7-3.2-5.5c0.3-0.9,1.3-2.4,5.2-2.1l1,0.1l-0.9,0.3c-2,0.6-3,1.6-2.8,2.6c0.3,1.4,2.5,2.6,4.5,2.5
			c1.2-0.1,3.2-0.7,3.4-4.1c0.1-2.3-0.8-4.3-2.7-5.7c-2.8-2.1-7.1-2.7-10.9-1.4c-3.6,1.2-7.2,4.5-10.9,8c-4.9,4.6-10.1,9.3-15.7,9.3
			c-0.1,0-0.3,0-0.4,0c-4.3-0.2-8-3.4-8.3-7.1C121,20.9,122.3,18.6,124.7,17.2z M95.3,309.4l-0.5-0.3c-23.4-13.6-43-33.2-56.7-56.5
			C24,228.6,16.5,201,16.5,173c0-28.2,7.6-56,21.9-80.1c13.9-23.5,33.7-43,57.4-56.6l0.5-0.3l1.3,2.3l-0.5,0.3
			c-48.1,27.5-77.9,79-77.9,134.4c0,54.9,29.5,106.2,77,133.8l0.5,0.3L95.3,309.4z M170.8,329c-0.2,2.7-1.5,4.9-3.8,6.5
			c-2.1,1.5-4.8,2.3-7.6,2.3c-1.3,0-2.6-0.2-3.8-0.5c-3.9-1-7.8-4.4-11.2-7.3c-0.8-0.7-1.5-1.3-2.3-1.9c-0.6-0.5-1.1-1-1.7-1.5
			c-3.7-3.1-8.2-7-12.7-6.6c-2.3,0.2-4.5,1.9-4.8,3.7c-0.3,1.7,0.2,3.3,1.4,4.4c1,0.9,2.4,1.2,3.5,0.9c1-0.3,1.7-1.3,2-2.6
			c-0.2-0.4-0.5-0.4-1.3-0.2c-0.9,0.1-2.1,0.3-2.5-1.3l0-0.1l0-0.1c0.8-2.4,2-2.9,2.9-3c1.4-0.1,3,1.1,3.9,2.9c1,2.2,0.8,4.4-0.7,6
			c-1.6,1.8-5.2,2-8.1,0.5c-1.5-0.7-4.8-3-3.7-8c0.4-1.9,1.7-3.5,3.8-4.6c1.7-0.9,3.9-1.4,5.7-1.3c5.4,0.3,10.1,4.8,14.7,9.1
			c3.7,3.5,7.5,7,11.5,8.2c3.3,1,8.3,0.6,11.1-2.1c1.7-1.6,2.3-3.9,1.7-6.5c-0.7-2.8-3-2.9-3.9-2.8c-1.8,0.1-3.4,1.2-3.5,2.3
			c-0.1,0.9,1,1.7,3,2.3l0.2,0.1l-0.1,0.2c-0.3,0.6-0.9,0.9-1.7,1c-1.4,0.1-3.2-0.6-3.6-1.3l0,0l0,0c-0.3-2.7,0.4-4.8,2-5.9
			c1.7-1.1,4.2-1,6.3,0.3C169.7,323.3,171,326,170.8,329z M225.4,327.1c-0.6,2.8-3.6,5.3-8,4.9c-3.2-0.3-5.3-2.2-5.4-4.9
			c-0.1-1.8,0.9-4,2.8-4.8c2.7-1.1,3.8-0.1,4.2,0.4c0.6,0.9,0.5,2.2-0.2,3c-0.7,0.8-1.8,1-2.9,0.5c0,1.7,0.9,2.7,2.5,2.8
			c2.1,0.1,4.6-1.5,4.8-3.9c0.1-1.7-0.4-3.1-1.6-4c-1.5-1.2-4.1-1.6-6.6-0.8c-4.2,1.2-7.6,4.4-11.3,7.9c-4.9,4.6-10,9.3-17.2,9.5
			c-0.1,0-0.2,0-0.2,0c-3.9,0-8.2-2.3-10.3-5.5c-1.1-1.8-2.2-4.7-0.4-8.2c1.4-2.9,4.5-3.6,6.8-3.3c2.5,0.3,4.3,1.6,4.7,3.4
			c0.5,2,0.3,3.4-0.6,4.2c-0.9,0.8-2.5,0.9-4.6,0.3l-1.1-0.3l1.1-0.1c1.2-0.1,2-0.6,2.4-1.5c0.4-0.8,0.2-1.9-0.4-2.6
			c-0.8-1-2.2-1.3-3.9-0.9c-2.3,0.5-3.2,2.3-2.9,5.6c0.3,3,2.9,6.4,7.9,6.7c6.4,0.5,11.6-4.4,16.6-9.1c4.3-4.1,8.8-8.3,14.1-9
			c3-0.4,6.2,0.7,8.1,2.8C224.9,321.4,226.1,323.6,225.4,327.1z M173.2,318.5c-19.4,0-38.3-3.8-56.1-11.3
			c-17.1-7.3-32.5-17.6-45.8-30.9c-13.2-13.2-23.6-28.6-30.9-45.8C33,212.8,29.2,194,29.2,174.5c0-19.4,3.8-38.3,11.3-56.1
			c7.3-17.1,17.6-32.5,30.9-45.8c13.2-13.2,28.6-23.6,45.8-30.9c17.8-7.5,36.6-11.3,56.1-11.3c19.4,0,38.3,3.8,56.1,11.3
			c17.1,7.3,32.5,17.6,45.8,30.9c13.2,13.2,23.6,28.6,30.9,45.8c7.5,17.8,11.3,36.6,11.3,56.1s-3.8,38.3-11.3,56.1
			c-7.3,17.1-17.6,32.5-30.9,45.8c-13.2,13.2-28.6,23.6-45.8,30.9C211.5,314.7,192.7,318.5,173.2,318.5z M252.4,309.6l-0.5,0.3
			l-1.3-2.3l0.5-0.3c47.9-27.6,77.7-79,77.7-134.3c0-55.6-30-107.2-78.4-134.7l-0.5-0.3l1.3-2.3l0.5,0.3
			c23.8,13.5,43.8,33.1,57.8,56.6c14.4,24.2,22,52,22,80.4c0,28.2-7.5,55.9-21.8,80C295.8,276.4,276,296,252.4,309.6z"/>
		<path class="st1" d="M235.8,256.3c-0.5-0.4-1-0.7-1.5-1c-0.6-0.2-1.2-0.3-1.8-0.3c-1.3,0-2.4,0.5-3.3,1.3c-0.9,0.9-1.3,2-1.3,3.4
			c0,0.7,0.1,1.3,0.4,1.8c0.2,0.6,0.6,1,1,1.4c0.4,0.4,0.9,0.7,1.5,1c1.1,0.5,2.6,0.5,3.7,0c0.6-0.2,1.1-0.6,1.5-1
			c0.4-0.4,0.8-0.9,1-1.5c0.2-0.6,0.4-1.2,0.4-1.8c0-0.7-0.1-1.3-0.4-1.9C236.6,257.2,236.3,256.7,235.8,256.3z"/>
		<path class="st1" d="M78.6,172.2c1.3-0.3,2.6-0.6,3.9-1v-5.5c-1.3,0.4-2.6,0.8-3.9,1.1V172.2z"/>
	</g>
</g>
</svg>
